<?xml version="1.0" encoding="utf-8"?>
<!-- Generator: Adobe Illustrator 28.2.0, SVG Export Plug-In . SVG Version: 6.00 Build 0)  -->
<svg version="1.1" id="Laag_2" xmlns="http://www.w3.org/2000/svg" xmlns:xlink="http://www.w3.org/1999/xlink" x="0px" y="0px"
	 width="370.9px" height="370.9px" viewBox="0 0 370.9 370.9" style="enable-background:new 0 0 370.9 370.9;" xml:space="preserve"
	>
<style type="text/css">
	.st0{fill:#FFFFFF;}
	.st1{fill:#5BC5F2;}
</style>
<circle class="st0" cx="185.4" cy="185.4" r="185.7"/>
<path class="st1" d="M292.4,104.1l-90-52c-10.5-6.1-23.4-6.1-33.9,0l-90,52c-10.5,6.1-16.9,17.3-16.9,29.4v103.9
	c0,12.1,6.5,23.3,16.9,29.4l90,52c10.5,6.1,23.4,6.1,33.9,0l90-52c10.5-6.1,16.9-17.3,16.9-29.4V133.5
	C309.4,121.4,302.9,110.2,292.4,104.1z M153.3,138.2c-6.7,0-10.9,0.8-12.2,2.2s-2,4.1-2.1,8.1c-0.3,11.1-0.6,18.4-1,21.7
	c-0.5,3.4-1.6,6.6-3.1,9.6c-1.6,3-4.6,6-9,8.7c4.2,2.6,7.2,5.6,9.1,9.1c1.9,3.3,3.1,8.5,3.3,15.1l1.1,20.2c0.3,1.9,1.5,3.5,3.1,4.5
	c1.5,0.9,5.1,1.5,10.8,1.5v16.7h-3.6c-7.4,0-13.1-0.9-17.2-2.5c-3.9-1.5-7-4.5-8.8-8.3c-1.8-3.9-2.7-10.2-2.7-18.7
	c0-9.6-0.4-15.6-1.1-18.2c-0.6-2.7-1.9-5.3-3.7-7.4c-1.8-2.1-5.4-3.3-10.5-3.5v-16.8c5,0,8.9-1.5,11.4-4.5c2.6-2.9,3.9-9.5,3.9-19.9
	c0-7.8,0.2-13.6,0.9-17.4c0.4-3.5,1.9-6.8,4.2-9.5c2.3-2.6,5.3-4.6,8.7-5.6c3.5-1,8.5-1.7,15-1.7h3.7L153.3,138.2z M265.3,197
	c-5.2,0-8.9,1.5-11.5,4.5c-2.5,2.9-3.8,9.6-3.8,19.9c0.1,5.9-0.2,11.7-0.9,17.5c-0.4,3.5-1.9,6.8-4.2,9.6c-2.3,2.6-5.3,4.5-8.7,5.6
	c-3.5,1-8.5,1.6-15,1.6h-3.8V239c6.6,0,10.5-0.7,12-2c1.3-1.3,2.2-4.1,2.2-8.3c0.3-11.9,0.8-19.6,1.3-22.9c0.6-3.3,1.8-6.6,3.5-9.5
	c2-3.2,4.9-5.8,8.2-7.6c-3.9-2.7-6.8-5.2-8.4-7.7c-1.6-2.5-2.7-5.4-3.2-8.3c-0.5-2.9-0.9-8.3-1.2-16.5c-0.3-7.9-0.7-12.5-1-13.7
	s-1.3-2.1-2.7-3s-5-1.3-10.9-1.3v-16.7h3.7c7.5,0,13.2,0.9,17.3,2.6c3.9,1.5,7.1,4.5,8.8,8.4c1.9,3.8,2.9,10,2.9,18.7
	c0,9.8,0.3,16,1,18.6c0.8,2.6,2.1,4.9,3.9,6.9c1.8,2.2,5.2,3.2,10.4,3.5L265.3,197z"/>
<g>
	<path d="M54,247.6c4.9,0,14.4,1.6,14.4,7.5c0,2.4-1.7,4.5-4.2,4.5c-2.7,0-4.6-2.3-10.3-2.3c-8.3,0-12.6,7-12.6,15.2
		c0,8,4.4,14.8,12.6,14.8c5.6,0,7.9-2.8,10.7-2.8c3,0,4.4,3,4.4,4.6c0,6.4-10.1,7.9-15.1,7.9c-13.6,0-23-10.8-23-24.7
		C31,258.3,40.3,247.6,54,247.6z"/>
	<path d="M106.5,290.2c0,2.5,0,6.3-4.6,6.3c-2.8,0-4-1.5-4.6-4.1c-2.5,2.9-5.5,4.5-9.2,4.5c-9,0-15.9-7.7-15.9-18.6
		c0-10.6,7.1-18.7,15.9-18.7c3.6,0,7,1.4,9.2,4.4c0.3-2.3,2.3-4,4.6-4c4.6,0,4.6,3.8,4.6,6.3V290.2z M89.4,288c5,0,7.4-5.1,7.4-9.7
		c0-4.6-2.3-9.8-7.4-9.8c-5.3,0-7.6,5.2-7.6,9.8C81.8,283,84.2,288,89.4,288z"/>
	<path d="M112,265.4c0-3.2,2-5.4,4.8-5.4c2.5,0,4.1,1.3,4.4,3.6c2.3-2.5,5.4-4,9-4c4,0,7.4,1.7,10,4.9c2.7-3.1,6.9-4.9,10.2-4.9
		c7.8,0,13.2,4.6,13.2,13v18.5c0,3.2-2,5.4-4.8,5.4c-2.8,0-4.8-2.1-4.8-5.4v-16.8c0-3.9-2.1-6.6-5.6-6.6c-3.6,0-5.7,2.7-5.7,6.6
		v16.8c0,3.2-2,5.4-4.8,5.4s-4.8-2.1-4.8-5.4v-16.8c0-3.9-2.1-6.6-5.6-6.6c-4,0-5.7,2.7-5.7,6.6v16.8c0,3.2-2,5.4-4.8,5.4
		s-4.8-2.1-4.8-5.4V265.4z"/>
	<path d="M169.1,265.4c0-3.2,2-5.4,4.8-5.4c2.7,0,4.2,1.5,4.8,4c1.8-2.9,5.6-4.4,9.2-4.4c10.4,0,15.5,9.7,15.5,19.1
		c0,9.1-6.2,18.2-15.9,18.2c-3,0-6.3-1.1-8.8-3.3v11.8c0,3.2-2,5.4-4.8,5.4c-2.8,0-4.8-2.1-4.8-5.4V265.4z M186.3,288
		c5,0,7.5-5.2,7.5-9.7c0-4.6-2.5-9.8-7.5-9.8c-5.2,0-7.6,4.8-7.6,9.5C178.7,282.7,181,288,186.3,288z"/>
	<path d="M207.5,265.4c0-3.2,2-5.4,4.8-5.4c2.8,0,4.8,2.1,4.8,5.4v17.2c0,4,3,6.2,6.2,6.2c3.2,0,6.2-2.2,6.2-6.2v-17.2
		c0-3.2,2-5.4,4.8-5.4s4.8,2.1,4.8,5.4v17.4c0,8.6-5.7,14.1-15.9,14.1c-10.2,0-15.9-5.5-15.9-14.1V265.4z"/>
	<path d="M265.1,270.9c-1.8,0-5.5-2.8-8.6-2.8c-1.7,0-3.3,0.8-3.3,2.7c0,4.5,16.8,3.8,16.8,14.8c0,6.4-5.4,11.3-13.7,11.3
		c-5.4,0-13.5-3.1-13.5-7.4c0-1.5,1.5-4.3,4.2-4.3c3.8,0,5.4,3.3,10,3.3c2.9,0,3.8-0.9,3.8-2.7c0-4.4-16.8-3.8-16.8-14.8
		c0-6.7,5.4-11.3,13.1-11.3c4.8,0,12.1,2.2,12.1,7C269,268.8,267.3,270.9,265.1,270.9z"/>
	<path d="M281.1,281.5c0.7,4.8,4.6,7,9.1,7c5,0,8.4-3.9,10.9-3.9c2.1,0,4,2.1,4,4.2c0,4.2-8.6,8.2-15.7,8.2
		c-10.9,0-18.1-7.9-18.1-18.6c0-9.8,7.1-18.7,17.3-18.7c10.5,0,17.4,9.5,17.4,17.6c0,2.9-1.3,4.3-4.2,4.3H281.1z M296.2,275.1
		c-0.5-4.2-3.2-7.4-7.7-7.4c-4.3,0-7.2,3.3-7.6,7.4H296.2z"/>
	<path d="M329.6,270.9c-1.8,0-5.5-2.8-8.6-2.8c-1.7,0-3.3,0.8-3.3,2.7c0,4.5,16.8,3.8,16.8,14.8c0,6.4-5.4,11.3-13.7,11.3
		c-5.4,0-13.5-3.1-13.5-7.4c0-1.5,1.5-4.3,4.2-4.3c3.8,0,5.4,3.3,10,3.3c2.9,0,3.8-0.9,3.8-2.7c0-4.4-16.8-3.8-16.8-14.8
		c0-6.7,5.4-11.3,13.1-11.3c4.8,0,12.1,2.2,12.1,7C333.5,268.8,331.9,270.9,329.6,270.9z"/>
</g>
</svg>
